<?xml version="1.0" encoding="iso-8859-1"?>
<!-- Generator: Adobe Illustrator 19.0.0, SVG Export Plug-In . SVG Version: 6.00 Build 0)  -->
<svg version="1.1" id="Layer_1" xmlns="http://www.w3.org/2000/svg" xmlns:xlink="http://www.w3.org/1999/xlink" x="0px" y="0px"
	 viewBox="0 0 512 512" style="enable-background:new 0 0 512 512;" xml:space="preserve">
<g>
	<g>
		<path d="M448,138.667V128c0-41.173-33.493-74.667-74.667-74.667H138.667C97.493,53.333,64,86.827,64,128v10.667
			c-35.285,0-64,28.715-64,64c0,18.901,8.256,35.925,21.333,47.659V448c0,5.888,4.779,10.667,10.667,10.667h85.333
			c5.888,0,10.667-4.779,10.667-10.667v-10.667h256V448c0,5.888,4.779,10.667,10.667,10.667H480c5.888,0,10.667-4.779,10.667-10.667
			V250.325C503.744,238.613,512,221.589,512,202.667C512,167.381,483.285,138.667,448,138.667z M106.667,298.667v42.667v85.333
			v10.667h-64V263.019c6.677,2.347,13.845,3.648,21.333,3.648c5.888,0,10.667-4.779,10.667-10.667
			c0-5.888-4.779-10.667-10.667-10.667c-23.531,0-42.667-19.136-42.667-42.667C21.333,179.136,40.469,160,64,160
			s42.667,19.136,42.667,42.667V298.667z M384,416H128v-64h256V416z M384,330.667H128v-21.333h256V330.667z M384,202.667V288H128
			v-85.333c0-27.776-17.899-51.221-42.667-60.075V128c0-29.397,23.936-53.333,53.333-53.333h234.667
			c29.397,0,53.333,23.936,53.333,53.333v14.592C401.899,151.424,384,174.891,384,202.667z M448,245.333
			c-5.888,0-10.667,4.779-10.667,10.667c0,5.888,4.779,10.667,10.667,10.667c7.488,0,14.656-1.28,21.333-3.648v174.315h-64v-10.667
			v-85.333v-42.667v-96C405.333,179.136,424.469,160,448,160c23.531,0,42.667,19.136,42.667,42.667
			C490.667,226.197,471.531,245.333,448,245.333z"/>
	</g>
</g>
<g>
</g>
<g>
</g>
<g>
</g>
<g>
</g>
<g>
</g>
<g>
</g>
<g>
</g>
<g>
</g>
<g>
</g>
<g>
</g>
<g>
</g>
<g>
</g>
<g>
</g>
<g>
</g>
<g>
</g>
</svg>
